<svg width="465" height="121" viewBox="0 0 465 121" fill="none" xmlns="http://www.w3.org/2000/svg">
<path d="M18.8565 97H2.37926L27.4858 24.2727H47.3011L72.3722 97H55.8949L37.6776 40.892H37.1094L18.8565 97ZM17.8267 68.4134H56.7472V80.4162H17.8267V68.4134ZM124.956 58.0085L111.106 58.8608C110.869 57.6771 110.36 56.6117 109.579 55.6648C108.798 54.6941 107.768 53.9247 106.49 53.3565C105.235 52.7647 103.732 52.4688 101.98 52.4688C99.636 52.4688 97.6592 52.9659 96.0494 53.9602C94.4395 54.9309 93.6346 56.233 93.6346 57.8665C93.6346 59.1686 94.1554 60.2694 95.1971 61.169C96.2388 62.0687 98.0262 62.7907 100.559 63.3352L110.431 65.3239C115.734 66.4129 119.688 68.1648 122.292 70.5795C124.896 72.9943 126.199 76.1667 126.199 80.0966C126.199 83.6714 125.145 86.8082 123.038 89.5071C120.955 92.206 118.09 94.313 114.444 95.8281C110.822 97.3196 106.644 98.0653 101.909 98.0653C94.6881 98.0653 88.9353 96.562 84.6502 93.5554C80.3888 90.5251 77.8912 86.4058 77.1573 81.1974L92.0366 80.4162C92.4864 82.6179 93.5754 84.2988 95.3036 85.4588C97.0318 86.5952 99.2454 87.1634 101.944 87.1634C104.596 87.1634 106.726 86.6544 108.336 85.6364C109.97 84.5947 110.798 83.2571 110.822 81.6236C110.798 80.2505 110.218 79.1259 109.082 78.25C107.946 77.3504 106.194 76.6638 103.826 76.1903L94.3803 74.3082C89.0536 73.2429 85.0882 71.3963 82.484 68.7685C79.9035 66.1406 78.6133 62.7907 78.6133 58.7188C78.6133 55.215 79.5603 52.1965 81.4542 49.6634C83.3718 47.1302 86.0588 45.1771 89.5153 43.804C92.9954 42.4309 97.0674 41.7443 101.731 41.7443C108.62 41.7443 114.042 43.2003 117.995 46.1122C121.973 49.0241 124.293 52.9896 124.956 58.0085ZM181.108 58.0085L167.259 58.8608C167.022 57.6771 166.513 56.6117 165.732 55.6648C164.95 54.6941 163.92 53.9247 162.642 53.3565C161.387 52.7647 159.884 52.4688 158.132 52.4688C155.788 52.4688 153.812 52.9659 152.202 53.9602C150.592 54.9309 149.787 56.233 149.787 57.8665C149.787 59.1686 150.308 60.2694 151.349 61.169C152.391 62.0687 154.179 62.7907 156.712 63.3352L166.584 65.3239C171.887 66.4129 175.84 68.1648 178.445 70.5795C181.049 72.9943 182.351 76.1667 182.351 80.0966C182.351 83.6714 181.297 86.8082 179.19 89.5071C177.107 92.206 174.242 94.313 170.597 95.8281C166.974 97.3196 162.796 98.0653 158.061 98.0653C150.84 98.0653 145.088 96.562 140.803 93.5554C136.541 90.5251 134.044 86.4058 133.31 81.1974L148.189 80.4162C148.639 82.6179 149.728 84.2988 151.456 85.4588C153.184 86.5952 155.398 87.1634 158.097 87.1634C160.748 87.1634 162.879 86.6544 164.489 85.6364C166.122 84.5947 166.951 83.2571 166.974 81.6236C166.951 80.2505 166.371 79.1259 165.234 78.25C164.098 77.3504 162.346 76.6638 159.979 76.1903L150.533 74.3082C145.206 73.2429 141.241 71.3963 138.636 68.7685C136.056 66.1406 134.766 62.7907 134.766 58.7188C134.766 55.215 135.713 52.1965 137.607 49.6634C139.524 47.1302 142.211 45.1771 145.668 43.804C149.148 42.4309 153.22 41.7443 157.884 41.7443C164.773 41.7443 170.194 43.2003 174.148 46.1122C178.125 49.0241 180.445 52.9896 181.108 58.0085ZM191.877 97V42.4545H207.005V97H191.877ZM199.476 35.4233C197.227 35.4233 195.298 34.6776 193.688 33.1861C192.102 31.6709 191.309 29.8598 191.309 27.7528C191.309 25.6695 192.102 23.8821 193.688 22.3906C195.298 20.8755 197.227 20.1179 199.476 20.1179C201.725 20.1179 203.643 20.8755 205.229 22.3906C206.839 23.8821 207.644 25.6695 207.644 27.7528C207.644 29.8598 206.839 31.6709 205.229 33.1861C203.643 34.6776 201.725 35.4233 199.476 35.4233ZM264.506 58.0085L250.657 58.8608C250.42 57.6771 249.911 56.6117 249.13 55.6648C248.349 54.6941 247.319 53.9247 246.04 53.3565C244.786 52.7647 243.282 52.4688 241.531 52.4688C239.187 52.4688 237.21 52.9659 235.6 53.9602C233.99 54.9309 233.185 56.233 233.185 57.8665C233.185 59.1686 233.706 60.2694 234.748 61.169C235.79 62.0687 237.577 62.7907 240.11 63.3352L249.982 65.3239C255.285 66.4129 259.239 68.1648 261.843 70.5795C264.447 72.9943 265.749 76.1667 265.749 80.0966C265.749 83.6714 264.696 86.8082 262.589 89.5071C260.505 92.206 257.641 94.313 253.995 95.8281C250.373 97.3196 246.194 98.0653 241.46 98.0653C234.239 98.0653 228.486 96.562 224.201 93.5554C219.94 90.5251 217.442 86.4058 216.708 81.1974L231.587 80.4162C232.037 82.6179 233.126 84.2988 234.854 85.4588C236.583 86.5952 238.796 87.1634 241.495 87.1634C244.147 87.1634 246.277 86.6544 247.887 85.6364C249.521 84.5947 250.349 83.2571 250.373 81.6236C250.349 80.2505 249.769 79.1259 248.633 78.25C247.496 77.3504 245.745 76.6638 243.377 76.1903L233.931 74.3082C228.604 73.2429 224.639 71.3963 222.035 68.7685C219.454 66.1406 218.164 62.7907 218.164 58.7188C218.164 55.215 219.111 52.1965 221.005 49.6634C222.923 47.1302 225.61 45.1771 229.066 43.804C232.546 42.4309 236.618 41.7443 241.282 41.7443C248.171 41.7443 253.593 43.2003 257.546 46.1122C261.523 49.0241 263.844 52.9896 264.506 58.0085ZM304.288 42.4545V53.8182H271.44V42.4545H304.288ZM278.897 29.3864H294.025V80.2386C294.025 81.6354 294.238 82.7244 294.664 83.5057C295.091 84.2633 295.682 84.7959 296.44 85.1037C297.221 85.4115 298.121 85.5653 299.139 85.5653C299.849 85.5653 300.559 85.5062 301.27 85.3878C301.98 85.2457 302.524 85.1392 302.903 85.0682L305.282 96.3253C304.525 96.562 303.459 96.8343 302.086 97.142C300.713 97.4735 299.044 97.6747 297.079 97.7457C293.433 97.8878 290.237 97.4025 287.491 96.2898C284.769 95.1771 282.65 93.4489 281.135 91.1051C279.619 88.7614 278.874 85.8021 278.897 82.2273V29.3864ZM378.596 49.7344H363.042C362.757 47.7221 362.177 45.9347 361.301 44.3722C360.426 42.786 359.301 41.4366 357.928 40.3239C356.555 39.2112 354.969 38.3589 353.169 37.767C351.394 37.1752 349.464 36.8793 347.381 36.8793C343.617 36.8793 340.338 37.8144 337.544 39.6847C334.751 41.5312 332.585 44.2301 331.046 47.7812C329.507 51.3087 328.738 55.5937 328.738 60.6364C328.738 65.821 329.507 70.1771 331.046 73.7045C332.608 77.232 334.786 79.8954 337.58 81.6946C340.373 83.4938 343.605 84.3935 347.275 84.3935C349.334 84.3935 351.24 84.1212 352.992 83.5767C354.767 83.0322 356.342 82.2391 357.715 81.1974C359.088 80.1321 360.224 78.8419 361.124 77.3267C362.047 75.8116 362.686 74.0833 363.042 72.142L378.596 72.2131C378.193 75.5511 377.187 78.7708 375.577 81.8722C373.991 84.9498 371.848 87.7079 369.15 90.1463C366.474 92.5611 363.278 94.4787 359.561 95.8991C355.868 97.2959 351.69 97.9943 347.026 97.9943C340.539 97.9943 334.739 96.5265 329.625 93.5909C324.535 90.6553 320.511 86.4058 317.551 80.8423C314.616 75.2789 313.148 68.5436 313.148 60.6364C313.148 52.7055 314.64 45.9583 317.623 40.3949C320.605 34.8314 324.654 30.5937 329.767 27.6818C334.881 24.7462 340.634 23.2784 347.026 23.2784C351.24 23.2784 355.146 23.8703 358.745 25.054C362.367 26.2377 365.575 27.9659 368.368 30.2386C371.162 32.4877 373.435 35.2457 375.186 38.5128C376.962 41.7798 378.098 45.5204 378.596 49.7344ZM402.477 24.2727L417.143 49.0597H417.711L432.449 24.2727H449.814L427.619 60.6364L450.311 97H432.626L417.711 72.1776H417.143L402.228 97H384.615L407.377 60.6364L385.041 24.2727H402.477Z" fill="#0F172A"/>
</svg>
